<svg id="e31dgNjS0L51" xmlns="http://www.w3.org/2000/svg" xmlns:xlink="http://www.w3.org/1999/xlink" viewBox="0 0 103 26" shape-rendering="geometricPrecision" text-rendering="geometricPrecision"><text id="e31dgNjS0L52" dx="0" dy="0" font-family="&quot;poppins black&quot;" font-size="3.15" transform="matrix(1 0 0 1 15.454068 24.898438)" fill="rgb(0,0,0)" stroke="none" stroke-width="0"><tspan id="e31dgNjS0L53" x="0" y="0" font-family="poppins black" font-size="34" font-weight="bold" transform="matrix(1 0 0 1 29.646522 0.000001)" fill="rgb(33,31,28)" stroke="none" stroke-width="0"><![CDATA[E]]></tspan></text><text id="e31dgNjS0L54" dx="0" dy="0" font-family="&quot;poppins black&quot;" font-size="3.15" transform="matrix(1 0 0 1 84.840613 24.921875)" fill="rgb(0,0,0)" stroke="none" stroke-width="0"><tspan id="e31dgNjS0L55" x="0" y="0" font-family="poppins black" font-size="34" font-weight="bold" transform="matrix(1 0 0 1 29.646522 0.000001)" fill="rgb(33,31,28)" stroke="none" stroke-width="0"><![CDATA[E]]></tspan></text><text id="e31dgNjS0L56" dx="0" dy="0" font-family="&quot;poppins black&quot;" font-size="3.15" transform="matrix(1 0 0 1 62.872594 24.921875)" fill="rgb(0,0,0)" stroke="none" stroke-width="0"><tspan id="e31dgNjS0L57" x="0" y="0" font-family="poppins black" font-size="34" font-weight="bold" transform="matrix(1 0 0 1 29.646522 0.000001)" fill="rgb(33,31,28)" stroke="none" stroke-width="0"><![CDATA[M]]></tspan></text><text id="e31dgNjS0L58" dx="0" dy="0" font-family="&quot;poppins black&quot;" font-size="3.15" transform="matrix(1 0 0 1 29.710938 24.898438)" fill="rgb(0,0,0)" stroke="none" stroke-width="0"><tspan id="e31dgNjS0L59" x="0" y="0" font-family="poppins black" font-size="34" font-weight="bold" transform="matrix(1 0 0 1 29.646522 0.000001)" fill="rgb(33,31,28)" stroke="none" stroke-width="0"><![CDATA[A]]></tspan></text><text id="e31dgNjS0L510" dx="0" dy="0" font-family="&quot;poppins black&quot;" font-size="3.15" transform="matrix(1 0 0 1 -1 24.921875)" fill="rgb(0,0,0)" stroke="none" stroke-width="0"><tspan id="e31dgNjS0L511" x="0" y="0" font-family="poppins black" font-size="34" font-weight="bold" transform="matrix(1 0 0 1 29.646522 0.000001)" fill="rgb(240,100,69)" stroke="none" stroke-width="0"><![CDATA[R]]></tspan></text><text id="e31dgNjS0L512" dx="0" dy="0" font-family="&quot;poppins black&quot;" font-size="3.15" transform="matrix(1 0 0 1 47.890536 24.898438)" fill="rgb(0,0,0)" stroke="none" stroke-width="0"><tspan id="e31dgNjS0L513" x="0" y="0" font-family="poppins black" font-size="34" font-weight="bold" transform="matrix(1 0 0 1 29.646522 0.000001)" fill="rgb(240,100,69)" stroke="none" stroke-width="0"><![CDATA[D]]></tspan></text></svg>