<svg id="eB2kYFXywS11" xmlns="http://www.w3.org/2000/svg" xmlns:xlink="http://www.w3.org/1999/xlink" viewBox="0 0 103 26" shape-rendering="geometricPrecision" text-rendering="geometricPrecision"><text id="eB2kYFXywS12" dx="0" dy="0" font-family="&quot;poppins black&quot;" font-size="3.15" transform="matrix(1 0 0 1 15.454068 24.898438)" fill="rgb(0,0,0)" stroke="none" stroke-width="0"><tspan id="eB2kYFXywS13" x="0" y="0" font-family="poppins black" font-size="34" font-weight="bold" transform="matrix(1 0 0 1 29.646522 0.000001)" fill="rgb(255,255,255)" stroke="none" stroke-width="0"><![CDATA[E]]></tspan></text><text id="eB2kYFXywS14" dx="0" dy="0" font-family="&quot;poppins black&quot;" font-size="3.15" transform="matrix(1 0 0 1 84.840613 24.921875)" fill="rgb(0,0,0)" stroke="none" stroke-width="0"><tspan id="eB2kYFXywS15" x="0" y="0" font-family="poppins black" font-size="34" font-weight="bold" transform="matrix(1 0 0 1 29.646522 0.000001)" fill="rgb(255,255,255)" stroke="none" stroke-width="0"><![CDATA[E]]></tspan></text><text id="eB2kYFXywS16" dx="0" dy="0" font-family="&quot;poppins black&quot;" font-size="3.15" transform="matrix(1 0 0 1 62.872594 24.921875)" fill="rgb(0,0,0)" stroke="none" stroke-width="0"><tspan id="eB2kYFXywS17" x="0" y="0" font-family="poppins black" font-size="34" font-weight="bold" transform="matrix(1 0 0 1 29.646522 0.000001)" fill="rgb(255,255,255)" stroke="none" stroke-width="0"><![CDATA[M]]></tspan></text><text id="eB2kYFXywS18" dx="0" dy="0" font-family="&quot;poppins black&quot;" font-size="3.15" transform="matrix(1 0 0 1 29.710938 24.898438)" fill="rgb(0,0,0)" stroke="none" stroke-width="0"><tspan id="eB2kYFXywS19" x="0" y="0" font-family="poppins black" font-size="34" font-weight="bold" transform="matrix(1 0 0 1 29.646522 0.000001)" fill="rgb(255,255,255)" stroke="none" stroke-width="0"><![CDATA[A]]></tspan></text><text id="eB2kYFXywS110" dx="0" dy="0" font-family="&quot;poppins black&quot;" font-size="3.15" transform="matrix(1 0 0 1 -1 24.921875)" fill="rgb(0,0,0)" stroke="none" stroke-width="0"><tspan id="eB2kYFXywS111" x="0" y="0" font-family="poppins black" font-size="34" font-weight="bold" transform="matrix(1 0 0 1 29.646522 0.000001)" fill="rgb(79,201,218)" stroke="none" stroke-width="0"><![CDATA[R]]></tspan></text><text id="eB2kYFXywS112" dx="0" dy="0" font-family="&quot;poppins black&quot;" font-size="3.15" transform="matrix(1 0 0 1 47.890536 24.898438)" fill="rgb(0,0,0)" stroke="none" stroke-width="0"><tspan id="eB2kYFXywS113" x="0" y="0" font-family="poppins black" font-size="34" font-weight="bold" transform="matrix(1 0 0 1 29.646522 0.000001)" fill="rgb(79,201,218)" stroke="none" stroke-width="0"><![CDATA[D]]></tspan></text></svg>